#!OML:ASF F:\VICON\USERDATA\INSTALL\rory3\rory3.ASF
:FULLY-SPECIFIED
:DEGREES
905
root -12.7315 17.9232 6.90078 178.139 60.7989 171.964
lowerback 3.3808 2.21631 -5.70299
upperback 1.34637 2.84348 -2.52847
thorax -0.651739 1.45243 0.476133
lowerneck -7.72008 -1.38311 -6.09606
upperneck 22.8191 -0.525666 1.7511
head 8.38534 -0.299142 1.61163
rclavicle -1.01877e-013 1.66979e-014
rhumerus -34.662 -4.02582 -80.8135
rradius 27.9472
rwrist -3.73867
rhand -11.213 16.6542
rfingers 7.12502
rthumb 14.8153 -12.7961
lclavicle -1.01877e-013 1.66979e-014
lhumerus -36.0024 -7.00777 85.6106
lradius 45.675
lwrist 15.5327
lhand -5.09437 27.7405
lfingers 7.12502
lthumb 20.7027 56.6563
rfemur -6.69164 1.02184 16.265
rtibia 42.9567
rfoot -13.5179 -8.23918
rtoes -21.6823
lfemur -18.9235 -3.33761 -27.5643
ltibia 22.1395
lfoot -9.53096 7.70506
ltoes -12.9482
906
root -12.6913 17.9294 6.83928 177.991 60.9354 171.983
lowerback 3.49375 2.21757 -5.73734
upperback 1.37283 2.83816 -2.54676
thorax -0.687903 1.45094 0.472412
lowerneck -7.83911 -1.31338 -6.1239
upperneck 22.8535 -0.428707 1.79306
head 8.41472 -0.253209 1.63988
rclavicle -7.72278e-014 -1.78906e-014
rhumerus -34.5914 -3.93524 -80.8373
rradius 28.06
rwrist -3.78507
rhand -11.6295 16.3151
rfingers 7.12502
rthumb 14.414 -13.1644
lclavicle -7.72278e-014 -1.78906e-014
lhumerus -35.9206 -7.2892 85.6446
lradius 46.4056
lwrist 16.0174
lhand -4.74431 27.5007
lfingers 7.12502
lthumb 21.0391 56.3794
rfemur -7.64727 0.671067 15.9587
rtibia 45.092
rfoot -12.7083 -7.44692
rtoes -19.0735
lfemur -18.3536 -3.35814 -27.6678
ltibia 21.8988
lfoot -9.90337 7.80718
ltoes -10.9206
907
root -12.6496 17.9344 6.7789 177.891 61.0879 172.004
lowerback 3.51715 2.22595 -5.76803
upperback 1.39776 2.84889 -2.55791
thorax -0.676596 1.45617 0.477073
lowerneck -7.80758 -1.24227 -6.18376
upperneck 22.7499 -0.34272 1.8495
head 8.37006 -0.213261 1.67558
rclavicle 5.81445e-014 3.53837e-014
rhumerus -34.4656 -4.05504 -80.7756
rradius 28.0916
rwrist -3.45753
rhand -12.3405 15.2894
rfingers 7.12502
rthumb 13.7288 -14.2377
lclavicle 5.81445e-014 3.53837e-014
lhumerus -35.8311 -7.71024 85.7471
lradius 47.0909
lwrist 16.6287
lhand -4.72622 27.3676
lfingers 7.12502
lthumb 21.0564 56.2444
rfemur -8.66315 0.361894 15.6506
rtibia 47.2171
rfoot -12.0959 -6.6273
rtoes -15.8552
lfemur -17.8307 -3.3128 -27.778
ltibia 21.6386
lfoot -10.2343 7.89767
ltoes -8.06776
908
root -12.6077 17.9359 6.7201 177.586 61.2443 171.741
lowerback 3.4672 2.24836 -5.91722
upperback 1.42767 2.88368 -2.6375
thorax -0.622146 1.47365 0.479177
lowerneck -7.78511 -1.20572 -6.20816
upperneck 22.668 -0.306927 1.8969
head 8.33639 -0.194897 1.69774
rclavicle 6.43068e-014 1.66979e-014
rhumerus -34.3343 -3.98653 -80.8883
rradius 28.2531
rwrist -3.39512
rhand -12.8372 14.2251
rfingers 7.12502
rthumb 13.2501 -15.3338
lclavicle 6.43068e-014 1.66979e-014
lhumerus -35.691 -8.19284 85.7853
lradius 47.7216
lwrist 17.0586
lhand -4.73624 27.1974
lfingers 7.12502
lthumb 21.0468 56.0753
rfemur -9.79477 -0.0213606 15.2371
rtibia 49.3625
rfoot -11.1191 -6.2474
rtoes -16.3002
lfemur -17.3136 -3.22442 -28.0287
ltibia 21.3101
lfoot -10.4652 7.91717
ltoes -6.3652
909
root -12.5691 17.938 6.67261 177.278 61.2834 171.474
lowerback 3.52994 2.24256 -6.18158
upperback 1.44217 2.86687 -2.68249
thorax -0.650976 1.46697 0.577408
lowerneck -7.76526 -1.17429 -6.1878
upperneck 22.6056 -0.257004 1.82882
head 8.30958 -0.176707 1.67518
rclavicle 4.35338e-014 6.36111e-015
rhumerus -34.2622 -3.75839 -81.0331
rradius 28.5666
rwrist -3.54852
rhand -12.9522 13.6268
rfingers 7.12502
rthumb 13.1392 -15.9392
lclavicle 4.35338e-014 6.36111e-015
lhumerus -35.4841 -8.59015 85.7911
lradius 48.2403
lwrist 17.2716
lhand -4.59104 26.9416
lfingers 7.12502
lthumb 21.1863 55.8039
rfemur -10.983 -0.519097 14.9191
rtibia 51.5102
rfoot -9.96239 -6.09175
rtoes -18.4087
lfemur -16.8076 -2.94095 -28.2639
ltibia 20.931
lfoot -10.5385 7.57708
ltoes -5.95703
910
root -12.534 17.9428 6.63641 176.869 61.183 171.158
lowerback 3.80754 2.18361 -6.60756
upperback 1.41403 2.75093 -2.6796
thorax -0.847451 1.41513 0.808652
lowerneck -7.69548 -1.1179 -6.20191
upperneck 22.5748 -0.159637 1.73937
head 8.28282 -0.139508 1.65622
rclavicle -3.47873e-015 -3.45885e-014
rhumerus -34.2202 -3.56266 -81.1141
rradius 28.7589
rwrist -3.64481
rhand -12.8889 13.6978
rfingers 7.12502
rthumb 13.2003 -15.8643
lclavicle -3.47873e-015 -3.45885e-014
lhumerus -35.332 -8.95177 85.8303
lradius 48.739
lwrist 17.6099
lhand -4.608 26.933
lfingers 7.12502
lthumb 21.17 55.7971
rfemur -12.12 -1.05332 14.6216
rtibia 53.6388
rfoot -9.04905 -5.80319
rtoes -18.5845
lfemur -16.2319 -2.39984 -28.522
ltibia 20.4822
lfoot -10.5029 6.86533
ltoes -5.29509
911
root -12.4975 17.9472 6.59344 176.549 61.0927 170.868
lowerback 3.95859 2.11158 -6.92571
upperback 1.36844 2.62948 -2.71161
thorax -0.983033 1.36013 0.950447
lowerneck -7.64851 -1.05239 -6.2613
upperneck 22.6301 -0.059122 1.75925
head 8.28894 -0.0935005 1.68309
rclavicle 2.31584e-014 4.37326e-015
rhumerus -34.1569 -3.38298 -81.2276
rradius 28.8283
rwrist -3.76683
rhand -12.7977 14.0012
rfingers 7.12502
rthumb 13.2882 -15.5552
lclavicle 2.31584e-014 4.37326e-015
lhumerus -35.1885 -9.23864 85.8365
lradius 49.1807
lwrist 17.8703
lhand -4.76227 26.9984
lfingers 7.12502
lthumb 21.0218 55.8791
rfemur -13.308 -1.54849 14.3041
rtibia 55.6993
rfoot -8.15274 -5.46698
rtoes -17.8932
lfemur -15.6906 -2.07406 -28.7713
ltibia 20.0142
lfoot -10.5708 6.35026
ltoes -4.29331
912
root -12.4589 17.9467 6.5418 176.392 61.0761 170.757
lowerback 3.98935 2.07913 -7.01118
upperback 1.36787 2.58298 -2.77458
thorax -0.998066 1.33892 0.934167
lowerneck -7.67588 -1.01315 -6.22369
upperneck 22.7259 0.012581 1.69927
head 8.32352 -0.0613206 1.66479
rclavicle 5.62561e-014 -1.07344e-014
rhumerus -34.1097 -3.23033 -81.4094
rradius 29.0537
rwrist -3.97742
rhand -12.9165 13.9794
rfingers 7.12502
rthumb 13.1737 -15.5844
lclavicle 5.62561e-014 -1.07344e-014
lhumerus -34.971 -9.52585 85.7609
lradius 49.5572
lwrist 17.9921
lhand -4.77002 26.9235
lfingers 7.12502
lthumb 21.0144 55.805
rfemur -14.477 -1.92229 14.0549
rtibia 57.6444
rfoot -7.19138 -5.1376
rtoes -17.0879
lfemur -15.1452 -2.02021 -28.9219
ltibia 19.5992
lfoot -10.7585 6.10495
ltoes -2.929
913
root -12.4179 17.9492 6.49114 176.295 61.1491 170.68
lowerback 3.95144 2.10934 -7.07639
upperback 1.38545 2.62847 -2.84068
thorax -0.961154 1.36184 0.901532
lowerneck -7.77589 -1.03597 -6.1841
upperneck 22.8812 0.0120688 1.60819
head 8.39525 -0.0666085 1.62989
rclavicle -9.49197e-014 3.65764e-014
rhumerus -34.0649 -3.09156 -81.5934
rradius 29.3386
rwrist -4.2308
rhand -13.0073 13.7437
rfingers 7.12502
rthumb 13.0861 -15.8258
lclavicle -9.49197e-014 3.65764e-014
lhumerus -34.7035 -9.92271 85.6811
lradius 49.9303
lwrist 18.1916
lhand -4.72141 26.764
lfingers 7.12502
lthumb 21.0611 55.6402
rfemur -15.6677 -2.13369 13.8514
rtibia 59.4752
rfoot -6.22441 -4.68874
rtoes -14.9979
lfemur -14.6753 -1.90145 -29.0383
ltibia 19.2483
lfoot -10.9182 5.90261
ltoes -2.27321
914
root -12.3748 17.957 6.4385 176.179 61.2349 170.553
lowerback 3.86111 2.11386 -7.14984
upperback 1.37394 2.64295 -2.92935
thorax -0.922164 1.3699 0.853363
lowerneck -7.81451 -1.0305 -6.16749
upperneck 23.0692 0.0440139 1.57153
head 8.46534 -0.0519311 1.62067
rclavicle -1.6201e-014 2.3059e-014
rhumerus -34.0281 -2.94715 -81.8087
rradius 29.5424
rwrist -4.35289
rhand -13.0644 13.7401
rfingers 7.12502
rthumb 13.0311 -15.8329
lclavicle -1.6201e-014 2.3059e-014
lhumerus -34.5427 -10.11 85.5198
lradius 50.3624
lwrist 18.3025
lhand -4.7345 26.7358
lfingers 7.12502
lthumb 21.0485 55.6134
rfemur -16.8252 -2.38976 13.6182
rtibia 61.1832
rfoot -5.26281 -4.28331
rtoes -11.8329
lfemur -14.2987 -1.83089 -29.1952
ltibia 18.9498
lfoot -11.0233 5.97981
ltoes -3.34946
915
root -12.3338 17.962 6.38764 175.942 61.245 170.308
lowerback 3.81134 2.07451 -7.31208
upperback 1.34597 2.59102 -3.00308
thorax -0.922745 1.3462 0.871005
lowerneck -7.75303 -0.984903 -6.18374
upperneck 23.2223 0.134267 1.52922
head 8.50308 -0.0116052 1.6201
rclavicle 3.39922e-014 -9.54166e-015
rhumerus -34.0489 -2.50065 -82.1041
rradius 29.8532
rwrist -4.78725
rhand -13.0686 13.8708
rfingers 7.12502
rthumb 13.027 -15.7024
lclavicle 3.39922e-014 -9.54166e-015
lhumerus -34.3966 -9.99741 85.3266
lradius 50.6766
lwrist 18.3378
lhand -4.78094 26.8045
lfingers 7.12502
lthumb 21.0039 55.6871
rfemur -17.9468 -2.70165 13.3367
rtibia 62.8041
rfoot -4.17912 -4.13524
rtoes -8.97208
lfemur -13.9333 -1.82027 -29.4256
ltibia 18.68
lfoot -11.0526 6.11728
ltoes -4.60141
916
root -12.2949 17.9605 6.33981 175.785 61.1975 170.195
lowerback 3.82526 2.02962 -7.42625
upperback 1.34303 2.52795 -3.03919
thorax -0.931954 1.31624 0.899522
lowerneck -7.75301 -0.966677 -6.17253
upperneck 23.425 0.197295 1.44782
head 8.57062 0.0139021 1.59995
rclavicle -4.25399e-014 -1.27222e-014
rhumerus -34.0683 -1.89774 -82.4473
rradius 30.2296
rwrist -5.44106
rhand -12.9882 14.1728
rfingers 7.12502
rthumb 13.1046 -15.3955
lclavicle -4.25399e-014 -1.27222e-014
lhumerus -34.2069 -9.85798 85.1515
lradius 50.9109
lwrist 18.2865
lhand -4.78179 26.7988
lfingers 7.12502
lthumb 21.0031 55.6815
rfemur -19.0232 -3.04517 13.1505
rtibia 64.3372
rfoot -3.26421 -4.01019
rtoes -8.70398
lfemur -13.5207 -1.70462 -29.591
ltibia 18.4508
lfoot -11.1189 5.94729
ltoes -4.78365
917
root -12.255 17.9589 6.29172 175.652 61.1138 170.159
lowerback 3.86381 1.99552 -7.45995
upperback 1.37536 2.48276 -3.08535
thorax -0.915891 1.29421 0.872305
lowerneck -7.83196 -0.989238 -6.22621
upperneck 23.7001 0.19626 1.47989
head 8.68007 0.0138963 1.62426
rclavicle -5.56597e-014 -3.97569e-015
rhumerus -33.9855 -1.70964 -82.6397
rradius 30.3296
rwrist -5.49142
rhand -13.2322 14.1575
rfingers 7.12502
rthumb 12.8694 -15.4258
lclavicle -5.56597e-014 -3.97569e-015
lhumerus -34.0139 -9.86329 85.0056
lradius 51.1157
lwrist 18.2209
lhand -4.87205 26.753
lfingers 7.12502
lthumb 20.9163 55.6453
rfemur -19.9791 -3.36047 13.0093
rtibia 65.7249
rfoot -2.82098 -3.63761
rtoes -9.33469
lfemur -13.0674 -1.59248 -29.7224
ltibia 18.2365
lfoot -11.1727 5.75948
ltoes -4.96845
